<svg width="98" height="96" viewBox="0 0 98 96" fill="none" xmlns="http://www.w3.org/2000/svg">
<path d="M37.3936 36.1952C37.3936 30.8252 33.6817 30.8252 33.6817 30.8252H18.438V42.3377H32.7366C35.2061 42.3377 37.3936 41.5577 37.3936 36.1952ZM33.6817 50.2952H18.438V64.0802H32.9958C35.1833 64.0202 39.2305 63.3302 39.2305 57.3752C39.2076 50.2502 33.6817 50.2952 33.6817 50.2952ZM72.7591 42.3377C64.6571 42.3377 63.529 50.2877 63.529 50.2877H80.7545C80.7545 50.2877 80.8612 42.3377 72.7591 42.3377Z" fill="#F2F2FF"/>
<path d="M85.1979 1.62012H13.1711C10.2218 1.62012 7.39331 2.77298 5.30785 4.8251C3.22238 6.87722 2.05078 9.66049 2.05078 12.5626V83.4301C2.05078 86.3323 3.22238 89.1155 5.30785 91.1676C7.39331 93.2198 10.2218 94.3726 13.1711 94.3726H85.1903C88.1395 94.3726 90.968 93.2198 93.0535 91.1676C95.139 89.1155 96.3106 86.3323 96.3106 83.4301V12.5626C96.3106 9.66179 95.14 6.87965 93.0562 4.82775C90.9724 2.77585 88.1459 1.62211 85.1979 1.62012ZM61.2728 24.6901H82.9037V31.0501H61.2728V24.6901ZM50.3354 58.0201C50.3354 73.7701 33.6816 73.2526 33.6816 73.2526H6.39525V21.6526H33.6816C41.9742 21.6526 48.5214 26.1526 48.5214 35.3926C48.5214 44.6326 40.5184 45.2101 40.5184 45.2101C51.0671 45.2101 50.3354 58.0201 50.3354 58.0201ZM90.8 57.1801H63.6661C63.6661 66.7651 72.8962 66.1801 72.8962 66.1801C81.608 66.1801 81.2802 60.6301 81.2802 60.6301H90.4951C90.4951 75.3601 72.5532 74.3476 72.5532 74.3476C51.0214 74.3476 52.4085 54.6226 52.4085 54.6226C52.4085 54.6226 52.4085 34.8001 72.5532 34.8001C93.7801 34.7851 90.8076 57.1801 90.8076 57.1801H90.8Z" fill="#F2F2FF"/>
</svg>
