<svg width="100" height="97" viewBox="0 0 100 97" fill="none" xmlns="http://www.w3.org/2000/svg">
<g clip-path="url(#clip0_655_5)">
<path d="M93.6524 5.255C90.0326 1.69308 85.677 -0.0854492 80.5806 -0.0854492H18.9155C13.8192 -0.0854492 9.46355 1.69308 5.84374 5.255C2.22394 8.81693 0.416504 13.1029 0.416504 18.1178V78.7968C0.416504 83.8117 2.22394 88.0976 5.84374 91.6595C9.46355 95.2215 13.8192 97 18.9155 97H33.3059C34.2442 97 34.9503 96.966 35.4244 96.9028C35.976 96.794 36.4738 96.5045 36.8368 96.0816C37.3059 95.5956 37.543 94.891 37.543 93.9678L37.5084 89.6672C37.4886 86.9265 37.4788 84.7592 37.4788 83.1556L35.9973 83.4083C35.059 83.5784 33.8738 83.6513 32.4367 83.6319C30.9389 83.6047 29.4458 83.4568 27.9725 83.1897C26.4041 82.9047 24.9276 82.2549 23.6662 81.2945C22.3452 80.3111 21.3599 78.9551 20.8415 77.407L20.1995 75.9492C19.6584 74.7992 18.9786 73.7175 18.1748 72.7274C17.2563 71.5466 16.3229 70.7497 15.3797 70.3269L14.9352 70.011C14.6253 69.7926 14.3434 69.5381 14.0957 69.253C13.8591 68.9884 13.6644 68.6902 13.5179 68.3686C13.3895 68.0721 13.4982 67.8292 13.8389 67.6397C14.1846 67.4453 14.8019 67.353 15.7056 67.353L16.9896 67.5473C17.8439 67.7126 18.9057 68.2179 20.1649 69.0586C21.4393 69.9135 22.5039 71.0374 23.281 72.3484C24.2687 74.0735 25.4539 75.3904 26.8465 76.2991C28.2391 77.2029 29.6416 77.6597 31.054 77.6597C32.4664 77.6597 33.6861 77.5528 34.7182 77.3438C35.7163 77.1407 36.6862 76.821 37.6072 76.3914C37.9924 73.573 39.0393 71.396 40.7529 69.8798C38.5325 69.6656 36.3319 69.2855 34.1701 68.7427C32.0604 68.1724 30.0314 67.3448 28.1305 66.279C26.1415 65.2135 24.3848 63.7738 22.96 62.0417C21.5921 60.3555 20.4662 58.1444 19.5872 55.4086C18.7131 52.6679 18.2736 49.5045 18.2736 45.9231C18.2736 40.8256 19.9625 36.4862 23.3452 32.9C21.765 29.0708 21.9131 24.7703 23.7946 20.0129C25.0391 19.629 26.8811 19.9157 29.3206 20.8633C31.7602 21.8109 33.5478 22.6224 34.6837 23.293C35.8195 23.9733 36.7281 24.5419 37.4146 25.0035C41.4293 23.9041 45.5783 23.3514 49.7456 23.361C53.9877 23.361 58.0964 23.9101 62.0816 25.0035L64.5211 23.4874C66.3976 22.3787 68.3769 21.448 70.4323 20.7078C72.704 19.8623 74.4324 19.6339 75.6373 20.0129C77.5633 24.7751 77.7312 29.0708 76.146 32.9048C79.5288 36.4862 81.2226 40.8256 81.2226 45.928C81.2226 49.5093 80.7831 52.6825 79.9041 55.4378C79.03 58.1979 77.8942 60.4089 76.5016 62.0757C75.0517 63.7856 73.2876 65.2116 71.3015 66.279C69.2274 67.4161 67.2125 68.2374 65.2619 68.7427C63.1003 69.2873 60.8996 69.669 58.6791 69.8847C60.9013 71.7798 62.0174 74.7684 62.0174 78.8551V93.9678C62.0174 94.6821 62.1211 95.2603 62.3384 95.7026C62.4383 95.9156 62.5807 96.1067 62.7571 96.2645C62.9336 96.4223 63.1405 96.5435 63.3656 96.621C63.8396 96.7862 64.2545 96.8931 64.6199 96.932C64.9853 96.9806 65.5088 96.9951 66.1903 96.9951H80.5806C85.677 96.9951 90.0326 95.2166 93.6524 91.6547C97.2673 88.0976 99.0797 83.8068 99.0797 78.7919V18.1178C99.0797 13.1029 97.2722 8.81693 93.6524 5.255Z" fill="#F2F2FF"/>
</g>
<defs>
<clipPath id="clip0_655_5">
<rect width="98.5763" height="97" fill="white" transform="translate(0.503418)"/>
</clipPath>
</defs>
</svg>
