<svg width="97" height="94" viewBox="0 0 97 94" fill="none" xmlns="http://www.w3.org/2000/svg">
<g clip-path="url(#clip0_655_3)">
<path d="M85.5316 0C88.3466 0 91.0464 1.10039 93.0369 3.05911C95.0275 5.01782 96.1457 7.67441 96.1457 10.4444V83.5556C96.1457 86.3256 95.0275 88.9822 93.0369 90.9409C91.0464 92.8996 88.3466 94 85.5316 94H11.2323C8.41728 94 5.71753 92.8996 3.72698 90.9409C1.73644 88.9822 0.618164 86.3256 0.618164 83.5556V10.4444C0.618164 7.67441 1.73644 5.01782 3.72698 3.05911C5.71753 1.10039 8.41728 0 11.2323 0H85.5316ZM82.878 80.9444V53.2667C82.878 48.7515 81.0552 44.4213 77.8106 41.2286C74.566 38.0359 70.1654 36.2422 65.5769 36.2422C61.0659 36.2422 55.8119 38.9578 53.2645 43.0311V37.2344H38.4577V80.9444H53.2645V55.1989C53.2645 51.1778 56.5549 47.8878 60.6413 47.8878C62.6119 47.8878 64.5017 48.6581 65.8951 50.0292C67.2884 51.4003 68.0712 53.2599 68.0712 55.1989V80.9444H82.878ZM21.2097 29.0356C23.5743 29.0356 25.8421 28.1112 27.5142 26.4659C29.1862 24.8206 30.1256 22.5891 30.1256 20.2622C30.1256 15.4056 26.1453 11.4367 21.2097 11.4367C18.8309 11.4367 16.5496 12.3665 14.8676 14.0216C13.1856 15.6767 12.2407 17.9215 12.2407 20.2622C12.2407 25.1189 16.2741 29.0356 21.2097 29.0356ZM28.5865 80.9444V37.2344H13.8859V80.9444H28.5865Z" fill="#F2F2FF"/>
</g>
<defs>
<clipPath id="clip0_655_3">
<rect width="95.5276" height="94" fill="white" transform="translate(0.618164)"/>
</clipPath>
</defs>
</svg>
