<svg xmlns="http://www.w3.org/2000/svg" version="1.1" xmlns:xlink="http://www.w3.org/1999/xlink" xmlns:svgjs="http://svgjs.dev/svgjs" width="1000" height="1000"><style>
    #light-icon {
      display: inline;
    }
    #dark-icon {
      display: none;
    }

    @media (prefers-color-scheme: dark) {
      #light-icon {
        display: none;
      }
      #dark-icon {
        display: inline;
      }
    }
  </style><g id="light-icon"><svg xmlns="http://www.w3.org/2000/svg" version="1.1" xmlns:xlink="http://www.w3.org/1999/xlink" xmlns:svgjs="http://svgjs.dev/svgjs" width="1000" height="1000"><g><g transform="matrix(0.7468259895444361,0,0,0.7468259895444361,0,277.44585511575804)" style="filter: contrast(1) brightness(0.1)"><svg xmlns="http://www.w3.org/2000/svg" version="1.1" xmlns:xlink="http://www.w3.org/1999/xlink" xmlns:svgjs="http://svgjs.dev/svgjs" width="1339" height="596"><svg width="1339" height="596" viewBox="0 0 1339 596" fill="none" xmlns="http://www.w3.org/2000/svg">
<g clip-path="url(#clip0_627_121)">
<path d="M1074.88 87.9006L1313.97 289.415L1074.88 490.93" stroke="#B040E3" stroke-width="30" stroke-miterlimit="10" stroke-linecap="square"></path>
<path d="M1023.25 26.0759L812.341 569.924" stroke="black" stroke-width="30" stroke-miterlimit="10" stroke-linecap="square"></path>
<path d="M630.217 85.8855L385.128 292.438L630.217 498.991L841.082 293.849H613.125" stroke="#B040E3" stroke-width="30" stroke-miterlimit="10" stroke-linecap="square"></path>
<path d="M538.752 152.385L31.7648 146.864L127.986 233.878H439.467" stroke="#B040E3" stroke-width="30" stroke-miterlimit="10" stroke-linecap="square"></path>
<path d="M164.629 243.067L233.318 320.892H407.38" stroke="#B040E3" stroke-width="30" stroke-miterlimit="10" stroke-linecap="square"></path>
<path d="M283.707 330.081L329.54 385.014H480.705" stroke="#B040E3" stroke-width="30" stroke-miterlimit="10" stroke-linecap="square"></path>
</g>
<defs>
<clipPath id="clip0_627_121">
<rect width="1339" height="596" fill="white"></rect>
</clipPath>
</defs>
</svg></svg></g></g></svg></g><g id="dark-icon"><svg xmlns="http://www.w3.org/2000/svg" version="1.1" xmlns:xlink="http://www.w3.org/1999/xlink" xmlns:svgjs="http://svgjs.dev/svgjs" width="1000" height="1000"><g clip-path="url(#SvgjsClipPath1416)"><rect width="1000" height="1000" fill="#ffffff"></rect><g transform="matrix(0.7468259895444361,0,0,0.7468259895444361,0,277.44585511575804)"><svg xmlns="http://www.w3.org/2000/svg" version="1.1" xmlns:xlink="http://www.w3.org/1999/xlink" xmlns:svgjs="http://svgjs.dev/svgjs" width="1339" height="596"><svg width="1339" height="596" viewBox="0 0 1339 596" fill="none" xmlns="http://www.w3.org/2000/svg">
<g clip-path="url(#clip0_627_121)">
<path d="M1074.88 87.9006L1313.97 289.415L1074.88 490.93" stroke="#B040E3" stroke-width="30" stroke-miterlimit="10" stroke-linecap="square"></path>
<path d="M1023.25 26.0759L812.341 569.924" stroke="black" stroke-width="30" stroke-miterlimit="10" stroke-linecap="square"></path>
<path d="M630.217 85.8855L385.128 292.438L630.217 498.991L841.082 293.849H613.125" stroke="#B040E3" stroke-width="30" stroke-miterlimit="10" stroke-linecap="square"></path>
<path d="M538.752 152.385L31.7648 146.864L127.986 233.878H439.467" stroke="#B040E3" stroke-width="30" stroke-miterlimit="10" stroke-linecap="square"></path>
<path d="M164.629 243.067L233.318 320.892H407.38" stroke="#B040E3" stroke-width="30" stroke-miterlimit="10" stroke-linecap="square"></path>
<path d="M283.707 330.081L329.54 385.014H480.705" stroke="#B040E3" stroke-width="30" stroke-miterlimit="10" stroke-linecap="square"></path>
</g>
<defs>
<clipPath id="clip0_627_121">
<rect width="1339" height="596" fill="white"></rect>
</clipPath>
<clipPath id="SvgjsClipPath1416"><rect width="1000" height="1000" x="0" y="0" rx="500" ry="500"></rect></clipPath></defs>
</svg></svg></g></g></svg></g></svg>